HIERARCHY
ROOT Hips
{
  OFFSET 3.13124 94.3669 -3.18751
  CHANNELS  6 Xposition Yposition Zposition Zrotation Xrotation Yrotation
  JOINT LeftUpLeg
  {
    OFFSET 8.64259 1.95398 -2.38835
    CHANNELS 3 Zrotation Xrotation Yrotation
    JOINT LeftLeg
    {
      OFFSET 43.7702 0 0
      CHANNELS 3 Zrotation Xrotation Yrotation
      JOINT LeftFoot
      {
        OFFSET 40.6238 0 0
        CHANNELS 3 Zrotation Xrotation Yrotation
        JOINT LeftToeBase
        {
          OFFSET 12.7242 0 0
          CHANNELS 3 Zrotation Xrotation Yrotation
          End Site
          {
            OFFSET 0 0 0
          }
        }
      }
    }
  }
  JOINT RightUpLeg
  {
    OFFSET -8.2249 1.95398 -2.59336
    CHANNELS 3 Zrotation Xrotation Yrotation
    JOINT RightLeg
    {
      OFFSET 43.5653 0 0
      CHANNELS 3 Zrotation Xrotation Yrotation
      JOINT RightFoot
      {
        OFFSET 40.6238 0 0
        CHANNELS 3 Zrotation Xrotation Yrotation
        JOINT RightToeBase
        {
          OFFSET 12.7242 0 0
          CHANNELS 3 Zrotation Xrotation Yrotation
          End Site
          {
            OFFSET 0 0 0
          }
        }
      }
    }
  }
  JOINT Spine
  {
    OFFSET 0.165834 0.87714 6.61349
    CHANNELS 3 Zrotation Xrotation Yrotation
    JOINT Spine1
    {
      OFFSET 7.38962 1.71661e-005 0
      CHANNELS 3 Zrotation Xrotation Yrotation
      JOINT Spine2
      {
        OFFSET 11.9445 1.14441e-005 0
        CHANNELS 3 Zrotation Xrotation Yrotation
        JOINT Spine3
        {
          OFFSET 14.7254 4.19617e-005 0
          CHANNELS 3 Zrotation Xrotation Yrotation
          JOINT Spine4
          {
            OFFSET 10.9679 0 0
            CHANNELS 3 Zrotation Xrotation Yrotation
            JOINT RightShoulder
            {
              OFFSET 2.46616 -1.6653 3.69651
              CHANNELS 3 Zrotation Xrotation Yrotation
              JOINT RightArm
              {
                OFFSET 13.0012 0 0
                CHANNELS 3 Zrotation Xrotation Yrotation
                JOINT RightForeArm
                {
                  OFFSET 28.7848 1.52588e-005 0
                  CHANNELS 3 Zrotation Xrotation Yrotation
                  JOINT RightHand
                  {
                    OFFSET 26.5688 1.52588e-005 0
                    CHANNELS 3 Zrotation Xrotation Yrotation
                    End Site
                    {
                      OFFSET 0 0 0
                    }
                  }
                }
              }
            }
            JOINT LeftShoulder
            {
              OFFSET 2.38034 -1.29275 -3.75231
              CHANNELS 3 Zrotation Xrotation Yrotation
              JOINT LeftArm
              {
                OFFSET 16.3182 6.10352e-005 0
                CHANNELS 3 Zrotation Xrotation Yrotation
                JOINT LeftForeArm
                {
                  OFFSET 27.0901 0 0
                  CHANNELS 3 Zrotation Xrotation Yrotation
                  JOINT LeftHand
                  {
                    OFFSET 24.5451 1.52588e-005 0
                    CHANNELS 3 Zrotation Xrotation Yrotation
                    End Site
                    {
                      OFFSET 0 0 0
                    }
                  }
                }
              }
            }
            JOINT Neck
            {
              OFFSET 5.0226 -0.0266342 0
              CHANNELS 3 Zrotation Xrotation Yrotation
              JOINT Head
              {
                OFFSET 6.69363 2.86102e-005 0
                CHANNELS 3 Zrotation Xrotation Yrotation
                End Site
                {
                  OFFSET 0 0 0
                }
              }
            }
          }
        }
      }
    }
  }
}
MOTION
Frames:	9
Frame Time:	0.0333333
3.94606 95.2972 -1.7145 125.629 -89.9972 125.671 -175.026 2.39394 90.3976 -8.59447 4.78052 0.699356 63.2377 1.39648 0.72174 28.7808 5.38796e-006 6.01283e-006 -179.907 1.89124 90.3098 -7.6011 0.236205 0.00813021 62.7362 -1.14187 -0.576482 28.7808 1.36766e-005 2.09615e-005 0.00378254 6.34405 -90.0477 14.1935 5.07302e-006 5.82012e-006 2.52251 2.4118e-006 -3.81889e-006 -20.0126 0.000662076 -1.44601e-006 4.77083e-015 0.000663695 -2.91188e-019 101.126 -18.3562 -84.7502 -8.98886 28.007 -2.73562 -7.16458 -28.0514 -10.7129 1.98422 0.127953 1.74422 -78.6616 -20.9063 95.0176 12.8857 -28.6893 -7.4487 5.22704 28.9544 -8.59591 -1.73947 -0.0589841 1.34525 1.74421 0.000292364 0.00411527 -7.40048 -0.000658432 -0.00149316 
3.95459 95.2925 -1.69499 151.202 -89.9707 151.244 -175.024 2.35898 90.3912 -8.59059 4.64183 0.645677 63.2736 1.4893 0.775997 28.7808 5.38796e-006 6.01283e-006 -179.922 1.94056 90.2896 -7.79362 0.12056 0.00142779 62.8706 -1.09508 -0.551059 28.7808 1.36766e-005 2.09615e-005 0.00380592 6.34405 -90.0484 14.1935 5.07302e-006 5.82012e-006 2.52251 2.4118e-006 -3.81889e-006 -20.0126 0.000662076 -1.44601e-006 8.99474e-024 0.000663695 -7.76503e-019 101.116 -18.2754 -84.757 -8.93239 27.9539 -2.82372 -7.06495 -28.0091 -10.5209 1.81902 0.118659 1.77107 -78.7051 -20.8594 94.9385 12.7611 -28.794 -6.87568 5.80325 28.9234 -9.77232 -2.0216 -0.0717925 1.75533 1.59727 0.000570948 0.0672702 -7.23755 -0.0112274 -0.0245415 
3.96084 95.2775 -1.68442 164.119 -89.9752 164.164 -175.03 2.32043 90.3903 -8.52758 4.60758 0.636423 63.3358 1.50652 0.788002 28.7808 5.38796e-006 6.01283e-006 -179.934 2.09327 90.2865 -8.11925 0.0844843 -0.00104656 63.0273 -1.09286 -0.551969 28.7808 1.36766e-005 2.09615e-005 0.00450177 6.34397 -90.0574 14.1935 5.07302e-006 5.82012e-006 2.52251 2.4118e-006 -3.81889e-006 -20.0126 0.000662076 -1.44601e-006 3.18055e-015 0.000663695 1.16475e-018 101.114 -18.2236 -84.7606 -8.89876 27.9923 -2.71157 -7.20415 -28.0305 -10.802 1.77442 0.1173 1.83333 -78.7079 -20.8463 94.9396 12.6182 -28.9238 -6.3436 6.41563 28.873 -11.0241 -2.39491 -0.0917835 2.29053 1.52661 0.00602361 0.0903402 -7.13234 -0.0191235 -0.0361125 
3.96336 95.2798 -1.67601 -173.695 -89.9686 -173.676 -175.024 2.38208 90.3662 -8.68959 4.59642 0.629073 63.343 1.51918 0.792614 28.7808 5.38796e-006 6.01283e-006 -179.939 2.22673 90.2601 -8.42161 0.0715166 -0.00283796 63.1638 -1.11407 -0.567711 28.7808 1.36766e-005 2.09615e-005 0.00237427 6.34416 -90.0303 14.1935 5.07302e-006 5.82012e-006 2.52251 2.4118e-006 -3.81889e-006 -20.0126 0.000662076 -1.44601e-006 1.59028e-015 0.000663695 -9.70628e-020 101.085 -18.1675 -84.7931 -8.87961 28.0651 -2.46027 -7.4732 -28.1436 -11.3171 1.9445 0.131461 2.00613 -78.7094 -20.906 94.9795 12.5764 -28.9113 -6.32585 6.45823 28.9826 -11.0731 -2.40952 -0.0926747 2.24553 1.42962 0.0254214 0.12205 -6.99337 -0.00913833 -0.0650257 
3.96168 95.2773 -1.67091 -155.765 -89.9529 -155.742 -175.021 2.33615 90.3748 -8.62673 4.64209 0.644821 63.345 1.47777 0.76962 28.7808 5.38796e-006 6.01283e-006 -179.938 2.191 90.2665 -8.37466 0.0739316 -0.00431212 63.1652 -1.07327 -0.544108 28.7808 1.36766e-005 2.09615e-005 0.00288135 6.34412 -90.0371 14.1935 5.07302e-006 5.82012e-006 2.52251 2.4118e-006 -3.81889e-006 -20.0126 0.000662076 -1.44601e-006 1.59028e-015 0.000663695 -3.88251e-019 101.045 -18.102 -84.8656 -8.83094 28.097 -2.21969 -7.64826 -28.0624 -11.7062 2.02351 0.139817 2.15494 -78.7311 -20.9601 94.9589 12.5477 -28.9274 -6.12839 6.60792 28.9533 -11.3843 -2.47031 -0.0962892 2.36296 1.32128 0.0311874 0.151666 -6.87681 -0.000946319 -0.0977275 
3.95202 95.2778 -1.67301 -112.51 -89.9503 -112.489 -175.015 2.38598 90.382 -8.67999 4.60243 0.631391 63.34 1.48834 0.774837 28.7808 5.38796e-006 6.01283e-006 -179.932 2.21066 90.2736 -8.35615 0.0495349 -0.00558676 63.1349 -1.1282 -0.575517 28.7808 1.36766e-005 2.09615e-005 0.00235418 6.34416 -90.0301 14.1935 5.07302e-006 5.82012e-006 2.52251 2.4118e-006 -3.81889e-006 -20.0126 0.000662076 -1.44601e-006 4.77083e-015 0.000663695 3.10601e-018 101.045 -18.0885 -84.8909 -8.7772 28.1436 -2.03279 -7.84802 -28.0876 -12.1124 2.13255 0.152009 2.37391 -78.712 -21.0073 94.9906 12.5235 -28.8618 -6.24551 6.42579 28.8721 -11.0475 -2.30574 -0.086696 2.26443 1.32448 0.0538303 0.183165 -6.87341 0.000207501 -0.126822 
3.94476 95.2721 -1.67057 -117.036 -89.9276 -117.015 -175.006 2.37825 90.3838 -8.70403 4.58088 0.627946 63.3866 1.51463 0.789923 28.7808 5.38796e-006 6.01283e-006 -179.937 2.47151 90.2746 -8.92783 0.0196963 -0.00677963 63.3578 -1.16266 -0.59972 28.7808 1.36766e-005 2.09615e-005 0.00151892 6.3442 -90.0197 14.1935 5.07302e-006 5.82012e-006 2.52251 2.4118e-006 -3.81889e-006 -20.0126 0.000662076 -1.44601e-006 6.36111e-015 0.000663695 3.10601e-018 101.022 -18.1162 -84.9306 -8.79196 28.1195 -1.99817 -7.81302 -28.1068 -12.0422 2.13856 0.15114 2.33459 -78.7264 -21.0425 94.9848 12.5113 -28.9769 -5.76428 6.91969 28.9515 -12.0107 -2.67002 -0.108613 2.59382 1.21892 0.0737495 0.18212 -6.77417 -0.00055298 -0.0919939 
3.92843 95.2794 -1.6756 -95.1914 -89.9004 -95.1574 -174.998 2.42234 90.4066 -8.73578 4.54372 0.617341 63.3377 1.49022 0.774974 28.7808 5.38796e-006 6.01283e-006 -179.92 2.26836 90.2913 -8.44149 -0.037832 -0.00801002 63.1579 -1.09922 -0.559606 28.7808 1.36766e-005 2.09615e-005 0.00159211 6.3442 -90.0206 14.1935 -2.59279e-005 -2.13238e-005 2.52253 -3.01898e-005 -3.00386e-005 -20.0126 0.000662076 -3.66102e-005 2.46434e-005 0.000663695 -3.55161e-005 101.012 -18.1422 -84.9756 -8.76442 28.1674 -1.78497 -8.01269 -28.1493 -12.4443 2.22338 0.152314 2.49891 -78.7141 -21.0505 94.9997 12.497 -28.954 -5.66017 6.93921 28.9312 -12.0583 -2.58886 -0.103613 2.65412 1.19287 0.0949079 0.176269 -6.72039 0.00780348 -0.0570575 
3.91338 95.2668 -1.68014 -96.3816 -89.8857 -96.3285 -174.999 2.39978 90.4257 -8.69249 4.49147 0.621636 63.4048 1.51825 0.792999 28.7808 5.38796e-006 6.01283e-006 -179.92 2.40728 90.3122 -8.73542 -0.134815 -0.00951117 63.291 -1.0677 -0.542983 28.7808 1.36766e-005 2.09615e-005 0.00246421 6.34417 -90.0281 14.1929 0.000631789 0.000548283 2.522 0.000646488 0.000503646 -20.0131 0.000662076 0.00070575 -0.000506115 0.000663695 0.000701733 100.992 -18.1979 -84.9999 -8.7741 28.1507 -1.73842 -8.0065 -28.1988 -12.4203 2.22527 0.154288 2.39784 -78.7285 -21.0353 94.9828 12.5035 -28.9756 -5.43333 7.09487 28.9294 -12.3708 -2.67 -0.101813 2.74561 1.11995 0.0987127 0.147794 -6.67065 0.023094 0.0196602 
